<?xml version="1.0" encoding="UTF-8"?>
<!-- Created with Inkscape (http://www.inkscape.org/) -->
<svg width="210.22mm" height="91.645mm" version="1.1" viewBox="0 0 210.22 91.645" xmlns="http://www.w3.org/2000/svg" xmlns:cc="http://creativecommons.org/ns#" xmlns:dc="http://purl.org/dc/elements/1.1/" xmlns:rdf="http://www.w3.org/1999/02/22-rdf-syntax-ns#">
 <metadata>
  <rdf:RDF>
   <cc:Work rdf:about="">
    <dc:format>image/svg+xml</dc:format>
    <dc:type rdf:resource="http://purl.org/dc/dcmitype/StillImage"/>
    <dc:title/>
   </cc:Work>
  </rdf:RDF>
 </metadata>
 <g transform="translate(688.71 -224.72)">
  <rect x="-688.71" y="224.72" width="210.22" height="91.645" fill="#ffffff" style="paint-order:markers stroke fill"/>
  <g transform="translate(-1026.4 137.09)" fill="none">
   <g transform="matrix(1.5043 -.57896 .57896 1.5043 381.34 131.85)" stroke="#ffb380" stroke-width=".26458">
    <ellipse transform="rotate(2.5736)" rx="1.4148" ry="26.458"/>
    <ellipse transform="rotate(12.48)" rx="6.5997" ry="26.458"/>
    <ellipse transform="rotate(23.44)" rx="11.335" ry="26.458"/>
    <ellipse transform="rotate(36.481)" rx="15.298" ry="26.458"/>
    <ellipse transform="rotate(52.81)" rx="18.218" ry="26.458"/>
    <ellipse transform="rotate(73.175)" rx="19.897" ry="26.458"/>
    <ellipse transform="rotate(-83.791)" rx="20.22" ry="26.458"/>
    <ellipse transform="rotate(-61.823)" rx="19.165" ry="26.458"/>
    <ellipse transform="rotate(-43.621)" rx="16.804" ry="26.458"/>
    <ellipse transform="rotate(-29.195)" rx="13.298" ry="26.458"/>
    <ellipse transform="rotate(-17.407)" rx="8.886" ry="26.458"/>
    <ellipse transform="rotate(-7.1219)" rx="3.8684" ry="26.458"/>
    <ellipse cy="20.019" rx="4.139" ry="2.6615"/>
    <ellipse cy="19.276" rx="8.1761" ry="5.2565"/>
    <ellipse cy="18.059" rx="12.012" ry="7.7221"/>
    <ellipse cy="16.397" rx="15.552" ry="9.9975"/>
    <ellipse cy="14.332" rx="18.709" ry="12.027"/>
    <ellipse cy="11.913" rx="21.405" ry="13.76"/>
    <ellipse cy="9.2016" rx="23.575" ry="15.154"/>
    <ellipse cy="6.2632" rx="25.163" ry="16.176"/>
    <ellipse cy="3.1707" rx="26.133" ry="16.799"/>
    <ellipse cy="1.2411e-15" rx="26.458" ry="17.008"/>
    <ellipse cy="-3.1707" rx="26.133" ry="16.799"/>
    <ellipse cy="-6.2632" rx="25.163" ry="16.176"/>
    <ellipse cy="-9.2016" rx="23.575" ry="15.154"/>
    <ellipse cy="-11.913" rx="21.405" ry="13.76"/>
    <ellipse cy="-14.332" rx="18.709" ry="12.027"/>
    <ellipse cy="-16.397" rx="15.552" ry="9.9975"/>
    <ellipse cy="-18.059" rx="12.012" ry="7.7221"/>
    <ellipse cy="-19.276" rx="8.1761" ry="5.2565"/>
    <ellipse cy="-20.019" rx="4.139" ry="2.6615"/>
    <circle r="26.458"/>
   </g>
   <g transform="matrix(1.5043 -.57896 .57896 1.5043 381.34 131.85)" stroke="#ffe6d5" stroke-width=".68989">
    <path transform="rotate(2.5736)" d="m3.7911e-8 26.458a1.4148 26.458 0 0 1-1.2253-13.229 1.4148 26.458 0 0 1 0-26.458 1.4148 26.458 0 0 1 1.2253-13.229"/>
    <path transform="rotate(12.48)" d="m1.7684e-7 26.458a6.5997 26.458 0 0 1-5.7155-13.229 6.5997 26.458 0 0 1 0-26.458 6.5997 26.458 0 0 1 5.7155-13.229"/>
    <path transform="rotate(23.44)" d="m3.0372e-7 26.458a11.335 26.458 0 0 1-9.8163-13.229 11.335 26.458 0 0 1 0-26.458 11.335 26.458 0 0 1 9.8163-13.229"/>
    <path transform="rotate(36.481)" d="m4.099e-7 26.458a15.298 26.458 0 0 1-13.248-13.229 15.298 26.458 0 0 1 0-26.458 15.298 26.458 0 0 1 13.248-13.229"/>
    <path transform="rotate(52.81)" d="m4.8815e-7 26.458a18.218 26.458 0 0 1-15.777-13.229 18.218 26.458 0 0 1 0-26.458 18.218 26.458 0 0 1 15.777-13.229"/>
    <path transform="rotate(73.175)" d="m5.3313e-7 26.458a19.897 26.458 0 0 1-17.231-13.229 19.897 26.458 0 0 1 0-26.458 19.897 26.458 0 0 1 17.231-13.229"/>
    <path transform="rotate(-83.791)" d="m3.9662e-7 -26.458a20.22 26.458 0 0 1 20.22 26.458 20.22 26.458 0 0 1-20.22 26.458"/>
    <path transform="rotate(-61.823)" d="m3.7593e-7 -26.458a19.165 26.458 0 0 1 19.165 26.458 19.165 26.458 0 0 1-19.165 26.458"/>
    <path transform="rotate(-43.621)" d="m3.2962e-7 -26.458a16.804 26.458 0 0 1 16.804 26.458 16.804 26.458 0 0 1-16.804 26.458"/>
    <path transform="rotate(-29.195)" d="m2.6085e-7 -26.458a13.298 26.458 0 0 1 13.298 26.458 13.298 26.458 0 0 1-13.298 26.458"/>
    <path transform="rotate(-17.407)" d="m1.743e-7 -26.458a8.886 26.458 0 0 1 8.886 26.458 8.886 26.458 0 0 1-8.886 26.458"/>
    <path transform="rotate(-7.1219)" d="m7.5879e-8 -26.458a3.8684 26.458 0 0 1 3.8684 26.458 3.8684 26.458 0 0 1-3.8684 26.458"/>
    <path d="m10.177 24.424a18.709 12.027 0 0 1-20.354 0"/>
    <path d="m16.967 20.302a21.405 13.76 0 0 1-16.967 5.3713 21.405 13.76 0 0 1-16.967-5.3713"/>
    <path d="m21.311 15.681a23.575 15.154 0 0 1-21.311 8.6753 23.575 15.154 0 0 1-21.311-8.6753"/>
    <path d="m24.21 10.673a25.163 16.176 0 0 1-24.21 11.766 25.163 16.176 0 0 1-24.21-11.766"/>
    <path d="m25.901 5.4032a26.133 16.799 0 0 1-25.901 14.566 26.133 16.799 0 0 1-25.901-14.566"/>
    <path d="m26.458 0a26.458 17.008 0 0 1-13.229 14.729 26.458 17.008 0 0 1-26.458 0 26.458 17.008 0 0 1-13.229-14.729"/>
    <path d="m25.901-5.4032a26.133 16.799 0 0 1-11.842 16.393 26.133 16.799 0 0 1-28.117 0 26.133 16.799 0 0 1-11.842-16.393"/>
    <path d="m24.21-10.673a25.163 16.176 0 0 1-9.6786 17.616 25.163 16.176 0 0 1-29.063-4e-7 25.163 16.176 0 0 1-9.6786-17.616"/>
    <path d="m21.311-15.681a23.575 15.154 0 0 1-6.656 18.349 23.575 15.154 0 0 1-29.311 6e-7 23.575 15.154 0 0 1-6.656-18.349"/>
    <path d="m16.967-20.302a21.405 13.76 0 0 1-2.5004 18.53 21.405 13.76 0 0 1-28.934-3e-7 21.405 13.76 0 0 1-2.5004-18.53"/>
    <path d="m10.177-24.424a18.709 12.027 0 0 1 7.7633 13.503 18.709 12.027 0 0 1-17.941 8.6156 18.709 12.027 0 0 1-17.941-8.6156 18.709 12.027 0 0 1 7.7633-13.503"/>
    <ellipse cy="-16.397" rx="15.552" ry="9.9975"/>
    <ellipse cy="-18.059" rx="12.012" ry="7.7221"/>
    <ellipse cy="-19.276" rx="8.1761" ry="5.2565"/>
    <ellipse cy="-20.019" rx="4.139" ry="2.6615"/>
    <circle r="26.458"/>
   </g>
  </g>
  <g transform="translate(-614.91 128.32)" fill="#ff7f2a" stroke="#ff7f2a" stroke-linecap="round">
   <path d="m33.922 136.03h45.086"/>
   <path d="m47.919 139.33h45.086"/>
   <path d="m53.28 141.85h31.019"/>
  </g>
  <g transform="translate(-688.92 87.965)" fill="#800000" stroke="#c83737" stroke-linecap="round">
   <path d="m138.39 137.93h45.086" stroke-width=".96504"/>
   <path d="m131.22 140.67h40.377" stroke-width=".91325"/>
   <path d="m144.69 143.38h31.019" stroke-width=".80046"/>
  </g>
 </g>
</svg>
